<?xml version="1.0" encoding="UTF-8"?>
<!-- Generator: visioncortex VTracer 0.6.4 -->
<svg version="1.1" xmlns="http://www.w3.org/2000/svg" width="1024" height="1024">
<path d="M0 0 C337.92 0 675.84 0 1024 0 C1024 337.92 1024 675.84 1024 1024 C686.0799999999999 1024 348.15999999999997 1024 0 1024 C0 686.0799999999999 0 348.15999999999997 0 0 Z " fill="#FDFEFE" transform="translate(0,0)"/>
<path d="M0 0 C1.10794880568983 -0.004457843899729141 2.215897611379603 -0.008915687799458283 3.3574206233024597 -0.013508617877960205 C5.167746975123919 -0.013232074081884093 5.167746975123919 -0.013232074081884093 7.014645576477051 -0.012949943542480469 C8.304936025738698 -0.016626631617555176 9.595226475000402 -0.020303319692629884 10.924616634845734 -0.02409142255783081 C14.500080920789742 -0.034078586789291876 18.07552842096834 -0.037822933208929044 21.651004672050476 -0.040480732917785645 C25.510201581948138 -0.04439375759386621 29.369385326493727 -0.05397161763880831 33.2285737991333 -0.06269359588623047 C42.54771333879057 -0.08243349044494153 51.8668539232699 -0.09252267729414143 61.186009138822556 -0.10142138600349426 C65.58126407596922 -0.10580976484072835 69.97651781791728 -0.11117527748973544 74.37177181243896 -0.1164102554321289 C88.99550310430334 -0.13342273197616805 103.61923366165195 -0.1479138056431566 118.24297332763672 -0.15515899658203125 C122.0358673830869 -0.1570687121175638 125.82876143221335 -0.15898906677756486 129.62165546417236 -0.16094493865966797 C131.03561334934085 -0.1616705489531114 131.03561334934085 -0.1616705489531114 132.47813604027033 -0.16241081804037094 C147.72595897897412 -0.1706994981782941 162.97370317219088 -0.19601664753599835 178.22149177640676 -0.22852561622858047 C193.8984370699261 -0.26167517208978097 209.5753424672987 -0.27961501334601735 225.25232297182083 -0.2828032374382019 C234.04515803354627 -0.28496141990240176 242.83787838198327 -0.2936077736199536 251.6306791305542 -0.31926441192626953 C259.12416046857743 -0.34107986100934795 266.6174992330242 -0.34896909138416277 274.1110087260604 -0.3392976298928261 C277.92709288397566 -0.3347836009162961 281.74288357424564 -0.33646748416913397 285.5589265823364 -0.35605907440185547 C305.26947306654165 -0.4516309733363073 324.0398867418387 0.011579120502346996 342.28596210479736 8.384221076965332 C343.60467304229735 8.972275276184064 343.60467304229735 8.972275276184064 344.95002460479736 9.572209358215332 C351.95711147486736 12.779478256092602 358.2508089146322 16.385835826751645 364.34846210479736 21.134221076965332 C364.86811542510986 21.533347053527848 365.38776874542236 21.932473030090307 365.92316913604736 22.343693733215332 C388.9754171508256 40.23223819268327 404.346851108927 66.07899905383101 408.34846210479736 95.13422107696533 C408.61701330800577 99.5403884123022 408.62321532690135 103.9325561777224 408.6091585159302 108.34593677520752 C408.6129840630292 109.63444894135 408.6168096101285 110.92296110749243 408.6207510828972 112.25051909685135 C408.63096823998785 115.79770492732985 408.6288654253956 119.34478897667435 408.62457048892975 122.89198291301727 C408.6220916985253 126.72922483293735 408.631131776606 130.56644297082664 408.6386079788208 134.40367603302002 C408.65132600624133 141.91066934635006 408.653152217649 149.41762684110745 408.6508077159524 156.92462911456823 C408.6490208156497 163.03121296637 408.65078216210327 169.1377859931108 408.65503215789795 175.24436855316162 C408.6556273468957 176.11527274940164 408.65622253589333 176.98617694564166 408.65683576092124 177.88347217813134 C408.6580475868717 179.65305560488173 408.65926172096124 181.422639030053 408.66047813743353 183.1922224536538 C408.6713429420854 199.77051688004644 408.66919645932626 216.34879094308496 408.66309329122305 232.9270865097642 C408.6579275193693 248.06667534362703 408.66917249789094 263.20619976795797 408.68819151073694 278.34577586501837 C408.7076026446591 293.91777833156493 408.71582002010086 309.48975037985406 408.71206825971603 325.0617650151253 C408.7101608665773 333.79348038314936 408.71259838281503 342.5251409763298 408.7267827987671 351.2568464279175 C408.7387395488752 358.6920927514459 408.74005377206163 366.1272505970878 408.727992631495 373.5624982342124 C408.72213334632295 377.34983769688415 408.7209217837774 381.1370156767448 408.73299503326416 384.9243440628052 C408.78624817933417 402.85039206154136 408.72615223493744 419.8123124864645 402.16096210479736 436.75922107696533 C401.86052997589104 437.55062488555905 401.56009784698495 438.34202869415276 401.25056171417236 439.15741443634033 C396.7191176514474 450.7046111024815 390.48701601543576 460.75076408248174 382.34846210479736 470.13422107696533 C381.6845949172973 470.94246326446535 381.0207277297974 471.75070545196536 380.33674335479736 472.58343982696533 C363.65736396821626 492.2225612119047 338.81044301596376 504.8439805424696 313.34846210479736 508.13422107696533 C303.7846735662556 508.82071687970074 294.18125769153096 508.70027355851767 284.5979071855545 508.67177879810333 C280.73885508350304 508.66470635065355 276.8798833008377 508.68084497233394 273.0208559036255 508.69377613067627 C265.48436698091166 508.71528929682313 257.948029792959 508.7153219286404 250.41152032464743 508.7071505859494 C244.27843896466356 508.70082036332815 238.14540146064087 508.70201513620736 232.01232051849365 508.70842266082764 C231.13548228237778 508.70932431589813 230.2586440462619 508.7102259709686 229.35523495450616 508.71115494892 C227.573259913293 508.713006379542 225.79128488361175 508.71486894201394 224.0093098655343 508.7167425081134 C207.34258418502077 508.7332771620538 190.67594344078043 508.72463920232826 174.00922290235758 508.70775692909956 C158.8055096918847 508.6930679671708 143.6019942593902 508.70768476519197 128.39830651134253 508.73652709275484 C112.7367719060876 508.76601366022055 97.07532827646685 508.776866227431 81.41376715898514 508.767344892025 C79.63786178425289 508.7663224795482 77.86195639329526 508.7653278631003 76.08605098724365 508.76436138153076 C75.21256454523655 508.7638849915936 74.33907810322944 508.7634086016566 73.43912237510085 508.76291777566075 C67.3247520242628 508.76076561958484 61.2104689954603 508.77049351457185 55.09611797332764 508.7851324081421 C47.62818830378768 508.8027646482765 40.16051033940204 508.8023840767296 32.692590080201626 508.77978075295687 C28.89233432780088 508.76873566501763 25.09252018503497 508.76525041706395 21.292284965515137 508.7840814590454 C-12.739431322865698 508.9402410293976 -39.813108907503874 501.96434812510745 -65.65153789520264 479.13422107696533 C-66.34634258270262 478.5232054519654 -67.04114727020266 477.91218982696535 -67.75700664520264 477.28265857696533 C-86.9784552820355 459.25056105338956 -99.09625971070159 431.7879514753648 -99.93113803863525 405.6512804031372 C-100.07308359584368 398.3100804591493 -100.07370884823297 390.9692261865903 -100.05837094783783 383.62704515457153 C-100.0535963244048 379.7687489935016 -100.06618651870872 375.91050063191415 -100.07638835906982 372.05222034454346 C-100.09349723052873 364.5144820514581 -100.09443307775564 356.9768274060407 -100.0891754552722 349.43907475471497 C-100.08511841609663 343.3078157286077 -100.08659542245567 337.1765812434485 -100.09192371368408 331.0453233718872 C-100.09267213571815 330.1695459026098 -100.09342055775227 329.2937684333324 -100.09419165924191 328.39145225286484 C-100.09572327762965 326.61180249271706 -100.09726162568086 324.83215273834867 -100.09880662709475 323.052502989769 C-100.11250252181014 306.40168907305383 -100.10711404790885 289.7509222754918 -100.0956214144826 273.10010945796967 C-100.08568762464608 257.89615213726734 -100.09863741591408 242.6923164903826 -100.12255560606718 227.48837792873383 C-100.14698670296974 211.83936977566458 -100.15654491127839 196.19041820099756 -100.1499028801918 180.54139137268066 C-100.14642013603958 171.77061198094384 -100.14858027292865 162.9999261402162 -100.16615390777588 154.2291612625122 C-100.18092599218664 146.76473280958623 -100.1814460561223 139.30046384440936 -100.16408299654722 131.83603835105896 C-100.15561244166486 128.03444489905695 -100.15332580912235 124.23313574649023 -100.16873455047607 120.43155765533447 C-100.27694583531672 91.70351251576881 -100.27694583531672 91.70351251576881 -95.65153789520264 78.13422107696533 C-95.0871866493041 76.15558148985065 -94.52438390055158 74.17649866516405 -93.96403789520264 72.19672107696533 C-89.08539906591471 58.26045434368933 -81.26374266701146 46.23076931428585 -71.65153789520264 35.13422107696533 C-70.68667461395262 34.01660388946533 -70.68667461395262 34.01660388946533 -69.70231914520264 32.87640857696533 C-52.73806962653555 14.697798463686468 -25.15776962014678 0.047194236161772096 0 0 Z " fill="#FDFDFD" transform="translate(357.65153789520264,257.86577892303467)"/>
<path d="M0 0 C0.6610272216796602 0.0027090454101426076 1.3220544433593773 0.005418090820285215 2.00311279296875 0.008209228515625 C12.377457405122414 0.07269390283875055 21.55239124907905 0.8490528304997156 31.3125 4.4375 C32.378554687500014 4.822929687499993 33.44460937500003 5.208359374999986 34.54296875 5.60546875 C46.17655886995351 10.161589595457087 55.97403248421267 16.141399653406097 65.3125 24.4375 C66.011171875 25.052382812500014 66.70984375 25.667265625000027 67.4296875 26.30078125 C78.77788996755305 36.942569507725466 89.68333725663808 52.688926814167985 91.3125 68.4375 C91.97636718749999 68.16035156250001 92.64023437499998 67.88320312500002 93.32421875 67.59765625 C94.20722656250001 67.23542968750002 95.09023437500002 66.87320312500003 96 66.5 C97.30517578125 65.96052734375002 97.30517578125 65.96052734375002 98.63671875 65.41015625 C111.74827124282046 60.644059066478405 126.4568462418024 63.19020436307335 139.3125 67.4375 C139.40531250000004 66.61507812499997 139.49812499999996 65.79265625 139.59375 64.9453125 C143.5369522576683 45.70077104681462 158.62770752520373 28.12740501073131 174.0625 16.6875 C197.17542503968605 1.5138461617470398 223.77158696234108 -3.4053128949656752 251.037353515625 1.462646484375 C268.21463735167345 5.256199006359111 282.57428615555443 15.125766602827298 295.875 26.25 C304.84244461312664 33.22467914354297 316.1518098051729 35.34386397578845 327.0654296875 37.47509765625 C332.4562697422698 38.61851792112577 336.0885557012225 39.631251750902265 339.3125 44.4375 C339.7913806553328 47.36729779815391 339.9733995115422 49.598544132633606 339.875 52.5 C339.88595703125 53.20705078125002 339.89691406249995 53.91410156249998 339.908203125 54.642578125 C339.85963447989604 58.09095192738192 339.601489017271 60.06620398413912 337.4609375 62.81640625 C335.3125000000002 64.43749999999989 335.3125000000002 64.43749999999989 332.375 66.3125 C328.1115872856436 69.27078637322688 324.9886989601314 72.40890311960595 323.3125 77.4375 C323.2195416424954 79.49843722839756 323.1807775319039 81.5619866067932 323.171875 83.625 C322.79352237639614 113.96770418725589 316.52771920546684 137.8043643165865 294.875 160.25 C283.71736721831576 171.00694431162378 269.39112711066196 179.45546819260687 254.3125 183.4375 C253.43593750000002 183.71335937499998 252.55937500000005 183.98921874999996 251.65625 184.2734375 C237.75567572675413 188.17849573655621 221.27315811982044 187.95291897662628 207.3125 184.4375 C206.30832031249997 184.19257812499995 205.30414062499995 183.94765625000002 204.26953125 183.6953125 C190.8194039628621 179.99284140756004 178.71784433151117 173.72418103307223 168.3125 164.4375 C167.495234375 163.77363281249995 166.67796875 163.10976562500002 165.8359375 162.42578125 C149.7214541759863 148.9305250916542 141.44700960714545 130.487557918888 136.77392578125 110.41357421875 C136.46240073389617 109.07945584135206 136.12818307614975 107.75046262970466 135.773193359375 106.42724609375 C134.99479966562808 103.06534434280269 134.9351585363612 99.62355677312922 134.75 96.1875 C134.68522460937493 95.0698828125 134.68522460937493 95.0698828125 134.619140625 93.9296875 C134.51353275017766 92.09915100307904 134.41255798537998 90.26834824312277 134.3125 88.4375 C125.1063400905341 83.37071911616619 114.45915429052252 82.90475502296289 104.2890625 85.0859375 C101.51986198512975 85.9910807103621 98.9174273754632 87.13503631226843 96.3125 88.4375 C96.12455391067687 90.34777172754656 96.04279500414196 92.26848191952865 96 94.1875 C94.37266422302605 121.27298699980378 83.29655330110234 145.95093068026677 62.97802734375 164.0380859375 C53.73681274008976 171.8027652262981 43.590587427615276 177.22047600532642 32.3125 181.4375 C31.08080078124999 181.91123046874998 31.08080078124999 181.91123046874998 29.82421875 182.39453125 C7.728062255000793 190.36170668247746 -17.839977563560183 187.91813216437242 -38.992919921875 178.348388671875 C-60.553477725645564 167.96657891872496 -78.0453358704134 149.81427304286353 -86.6875 127.4375 C-88.50882031081346 121.83150449023162 -89.93358575595909 116.12678398486901 -91.241943359375 110.3818359375 C-91.53465440906575 109.1044930335346 -91.8650708044724 107.83510389894792 -92.235595703125 106.578125 C-92.83050756743319 103.76008760061899 -92.8154838124496 101.08278752397928 -92.828125 98.203125 C-92.84746093749999 96.988828125 -92.86679687499998 95.77453125 -92.88671875 94.5234375 C-92.92036398571338 91.98192815611088 -92.93878590908645 89.44016818612221 -92.94140625 86.8984375 C-93.08737937499933 79.63051243424445 -93.42865217595715 73.83725820888492 -98.6875 68.4375 C-101.29057710417709 66.6841125257132 -101.29057710417709 66.6841125257132 -104 65.5 C-106.63565634302711 63.81490823970398 -108.35669689537247 62.64522864783129 -109.20361328125 59.55322265625 C-109.97634136310086 53.35316666738851 -110.20052284723437 46.975036075630726 -106.9453125 41.515625 C-104.4607074718719 39.22875670421428 -102.95512472261157 38.54188051844011 -99.6875 37.8125 C-98.22957031250002 37.46445312499998 -98.22957031250002 37.46445312499998 -96.7421875 37.109375 C-95.73414062500001 36.88765625000002 -94.72609375000002 36.665937499999984 -93.6875 36.4375 C-79.16926132488516 33.107983930506975 -68.31897453239321 28.57605586610225 -56.6015625 19.4453125 C-47.08534839584098 12.048978039952601 -37.26150254544632 6.91461541439628 -25.6875 3.4375 C-24.90818115234373 3.1778344726562295 -24.128862304687516 2.918168945312516 -23.325927734375 2.650634765625 C-15.527232334649966 0.23020134308478646 -8.129154794270846 -0.06419105175513096 0 0 Z " fill="#040404" transform="translate(396.6875,373.5625)"/>
<path d="M0 0 C1.10794880568983 -0.004457843899729141 2.215897611379603 -0.008915687799458283 3.3574206233024597 -0.013508617877960205 C5.167746975123919 -0.013232074081884093 5.167746975123919 -0.013232074081884093 7.014645576477051 -0.012949943542480469 C8.304936025738698 -0.016626631617555176 9.595226475000402 -0.020303319692629884 10.924616634845734 -0.02409142255783081 C14.500080920789742 -0.034078586789291876 18.07552842096834 -0.037822933208929044 21.651004672050476 -0.040480732917785645 C25.510201581948138 -0.04439375759386621 29.369385326493727 -0.05397161763880831 33.2285737991333 -0.06269359588623047 C42.54771333879057 -0.08243349044494153 51.8668539232699 -0.09252267729414143 61.186009138822556 -0.10142138600349426 C65.58126407596922 -0.10580976484072835 69.97651781791728 -0.11117527748973544 74.37177181243896 -0.1164102554321289 C88.99550310430334 -0.13342273197616805 103.61923366165195 -0.1479138056431566 118.24297332763672 -0.15515899658203125 C122.0358673830869 -0.1570687121175638 125.82876143221335 -0.15898906677756486 129.62165546417236 -0.16094493865966797 C131.03561334934085 -0.1616705489531114 131.03561334934085 -0.1616705489531114 132.47813604027033 -0.16241081804037094 C147.72595897897412 -0.1706994981782941 162.97370317219088 -0.19601664753599835 178.22149177640676 -0.22852561622858047 C193.8984370699261 -0.26167517208978097 209.5753424672987 -0.27961501334601735 225.25232297182083 -0.2828032374382019 C234.04515803354627 -0.28496141990240176 242.83787838198327 -0.2936077736199536 251.6306791305542 -0.31926441192626953 C259.12416046857743 -0.34107986100934795 266.6174992330242 -0.34896909138416277 274.1110087260604 -0.3392976298928261 C277.92709288397566 -0.3347836009162961 281.74288357424564 -0.33646748416913397 285.5589265823364 -0.35605907440185547 C305.26947306654165 -0.4516309733363073 324.0398867418387 0.011579120502346996 342.28596210479736 8.384221076965332 C343.60467304229735 8.972275276184064 343.60467304229735 8.972275276184064 344.95002460479736 9.572209358215332 C351.95711147486736 12.779478256092602 358.2508089146322 16.385835826751645 364.34846210479736 21.134221076965332 C364.86811542510986 21.533347053527848 365.38776874542236 21.932473030090307 365.92316913604736 22.343693733215332 C388.9754171508256 40.23223819268327 404.346851108927 66.07899905383101 408.34846210479736 95.13422107696533 C408.61701330800577 99.5403884123022 408.62321532690135 103.9325561777224 408.6091585159302 108.34593677520752 C408.6129840630292 109.63444894135 408.6168096101285 110.92296110749243 408.6207510828972 112.25051909685135 C408.63096823998785 115.79770492732985 408.6288654253956 119.34478897667435 408.62457048892975 122.89198291301727 C408.6220916985253 126.72922483293735 408.631131776606 130.56644297082664 408.6386079788208 134.40367603302002 C408.65132600624133 141.91066934635006 408.653152217649 149.41762684110745 408.6508077159524 156.92462911456823 C408.6490208156497 163.03121296637 408.65078216210327 169.1377859931108 408.65503215789795 175.24436855316162 C408.6556273468957 176.11527274940164 408.65622253589333 176.98617694564166 408.65683576092124 177.88347217813134 C408.6580475868717 179.65305560488173 408.65926172096124 181.422639030053 408.66047813743353 183.1922224536538 C408.6713429420854 199.77051688004644 408.66919645932626 216.34879094308496 408.66309329122305 232.9270865097642 C408.6579275193693 248.06667534362703 408.66917249789094 263.20619976795797 408.68819151073694 278.34577586501837 C408.7076026446591 293.91777833156493 408.71582002010086 309.48975037985406 408.71206825971603 325.0617650151253 C408.7101608665773 333.79348038314936 408.71259838281503 342.5251409763298 408.7267827987671 351.2568464279175 C408.7387395488752 358.6920927514459 408.74005377206163 366.1272505970878 408.727992631495 373.5624982342124 C408.72213334632295 377.34983769688415 408.7209217837774 381.1370156767448 408.73299503326416 384.9243440628052 C408.78624817933417 402.85039206154136 408.72615223493744 419.8123124864645 402.16096210479736 436.75922107696533 C401.86052997589104 437.55062488555905 401.56009784698495 438.34202869415276 401.25056171417236 439.15741443634033 C396.7191176514474 450.7046111024815 390.48701601543576 460.75076408248174 382.34846210479736 470.13422107696533 C381.6845949172973 470.94246326446535 381.0207277297974 471.75070545196536 380.33674335479736 472.58343982696533 C363.65736396821626 492.2225612119047 338.81044301596376 504.8439805424696 313.34846210479736 508.13422107696533 C303.7846735662556 508.82071687970074 294.18125769153096 508.70027355851767 284.5979071855545 508.67177879810333 C280.73885508350304 508.66470635065355 276.8798833008377 508.68084497233394 273.0208559036255 508.69377613067627 C265.48436698091166 508.71528929682313 257.948029792959 508.7153219286404 250.41152032464743 508.7071505859494 C244.27843896466356 508.70082036332815 238.14540146064087 508.70201513620736 232.01232051849365 508.70842266082764 C231.13548228237778 508.70932431589813 230.2586440462619 508.7102259709686 229.35523495450616 508.71115494892 C227.573259913293 508.713006379542 225.79128488361175 508.71486894201394 224.0093098655343 508.7167425081134 C207.34258418502077 508.7332771620538 190.67594344078043 508.72463920232826 174.00922290235758 508.70775692909956 C158.8055096918847 508.6930679671708 143.6019942593902 508.70768476519197 128.39830651134253 508.73652709275484 C112.7367719060876 508.76601366022055 97.07532827646685 508.776866227431 81.41376715898514 508.767344892025 C79.63786178425289 508.7663224795482 77.86195639329526 508.7653278631003 76.08605098724365 508.76436138153076 C75.21256454523655 508.7638849915936 74.33907810322944 508.7634086016566 73.43912237510085 508.76291777566075 C67.3247520242628 508.76076561958484 61.2104689954603 508.77049351457185 55.09611797332764 508.7851324081421 C47.62818830378768 508.8027646482765 40.16051033940204 508.8023840767296 32.692590080201626 508.77978075295687 C28.89233432780088 508.76873566501763 25.09252018503497 508.76525041706395 21.292284965515137 508.7840814590454 C-12.739431322865698 508.9402410293976 -39.813108907503874 501.96434812510745 -65.65153789520264 479.13422107696533 C-66.34634258270262 478.5232054519654 -67.04114727020266 477.91218982696535 -67.75700664520264 477.28265857696533 C-86.9784552820355 459.25056105338956 -99.09625971070159 431.7879514753648 -99.93113803863525 405.6512804031372 C-100.07308359584368 398.3100804591493 -100.07370884823297 390.9692261865903 -100.05837094783783 383.62704515457153 C-100.0535963244048 379.7687489935016 -100.06618651870872 375.91050063191415 -100.07638835906982 372.05222034454346 C-100.09349723052873 364.5144820514581 -100.09443307775564 356.9768274060407 -100.0891754552722 349.43907475471497 C-100.08511841609663 343.3078157286077 -100.08659542245567 337.1765812434485 -100.09192371368408 331.0453233718872 C-100.09267213571815 330.1695459026098 -100.09342055775227 329.2937684333324 -100.09419165924191 328.39145225286484 C-100.09572327762965 326.61180249271706 -100.09726162568086 324.83215273834867 -100.09880662709475 323.052502989769 C-100.11250252181014 306.40168907305383 -100.10711404790885 289.7509222754918 -100.0956214144826 273.10010945796967 C-100.08568762464608 257.89615213726734 -100.09863741591408 242.6923164903826 -100.12255560606718 227.48837792873383 C-100.14698670296974 211.83936977566458 -100.15654491127839 196.19041820099756 -100.1499028801918 180.54139137268066 C-100.14642013603958 171.77061198094384 -100.14858027292865 162.9999261402162 -100.16615390777588 154.2291612625122 C-100.18092599218664 146.76473280958623 -100.1814460561223 139.30046384440936 -100.16408299654722 131.83603835105896 C-100.15561244166486 128.03444489905695 -100.15332580912235 124.23313574649023 -100.16873455047607 120.43155765533447 C-100.27694583531672 91.70351251576881 -100.27694583531672 91.70351251576881 -95.65153789520264 78.13422107696533 C-95.0871866493041 76.15558148985065 -94.52438390055158 74.17649866516405 -93.96403789520264 72.19672107696533 C-89.08539906591471 58.26045434368933 -81.26374266701146 46.23076931428585 -71.65153789520264 35.13422107696533 C-70.68667461395262 34.01660388946533 -70.68667461395262 34.01660388946533 -69.70231914520264 32.87640857696533 C-52.73806962653555 14.697798463686468 -25.15776962014678 0.047194236161772096 0 0 Z M-11.651537895202637 16.134221076965332 C-12.726616020202641 16.394611701965346 -13.801694145202646 16.65500232696536 -14.909350395202637 16.923283576965332 C-40.43370841691535 24.36499013915403 -61.61196159581266 40.972652009949684 -74.65153789520264 64.13422107696533 C-85.36574853491857 84.03347331329314 -86.25436234057827 104.08940738117985 -86.17443656921387 126.26706826686859 C-86.16527849703766 130.03605674299365 -86.17940827517748 133.8049749827353 -86.19035625457764 137.57394886016846 C-86.20803233766111 144.9326390539805 -86.20435076754791 152.29116496627444 -86.19270569086075 159.64986128360033 C-86.18362898110195 165.63614133358857 -86.18246556259686 171.62237572263325 -86.18680095672607 177.608660697937 C-86.18741388887167 178.46445093583316 -86.18802682101727 179.3202411737293 -86.18865832686424 180.20196444913745 C-86.18993737570435 181.94110641700445 -86.19123423216615 183.68024837186397 -86.19254869222641 185.4193903133273 C-86.2039223380354 201.68159464049324 -86.19089112017713 217.94370839382947 -86.16934722661972 234.20589786022902 C-86.15147595973059 248.12630544556714 -86.15458684147552 262.0465795637666 -86.17302227020264 275.96698474884033 C-86.19448048473026 292.177190012251 -86.20282736785941 308.3873161571835 -86.19057321548462 324.5975336432457 C-86.18929916936605 326.329554823805 -86.18804168318741 328.0615760166264 -86.18680095672607 329.7935972213745 C-86.18618385463952 330.645533629842 -86.18556675255297 331.49747003830976 -86.18493095040321 332.37522270157933 C-86.1814931070802 338.34718557504266 -86.18727233705829 344.319097793973 -86.1967191696167 350.29105281829834 C-86.20799563412339 357.57901248088024 -86.20478132417213 364.86680006069616 -86.18359619379044 372.15474028140306 C-86.17316156113117 375.8653308552193 -86.16883230294303 379.5756356516699 -86.1821928024292 383.28622341156006 C-86.2800052706271 412.93111030526825 -81.5192321338385 438.8664884428516 -61.65153789520264 462.13422107696533 C-60.69634258270264 463.37752185821535 -60.69634258270264 463.37752185821535 -59.72185039520264 464.64593982696533 C-45.85225658562314 481.31562144338454 -23.534563621380187 490.49260510995634 -2.6515378952026367 494.13422107696533 C-0.8387986738656537 494.2231127683276 0.9767120757599628 494.26323498816396 2.791627883911133 494.2656488418579 C3.878535364270192 494.2694899868966 4.965442844629308 494.27333113193504 6.085286915302277 494.2772886753082 C7.273784660697004 494.2764221930504 8.462282406091674 494.27555571079256 9.686795234680176 494.2746629714966 C10.95384664237497 494.27763409376143 12.22089805006982 494.2806052160263 13.526344954967499 494.2836663722992 C17.041453485320915 494.29172422899956 20.55654158129653 494.2935252758165 24.07165825366974 494.2942638397217 C27.864010085928783 494.29611662997263 31.65635136978551 494.3036653438294 35.448697090148926 494.31039905548096 C43.742597773307295 494.32397662241885 52.036493618643135 494.33000685586694 60.330403566360474 494.3344097137451 C65.51380944798319 494.33717441630665 70.69721347069316 494.34141231441845 75.88061809539795 494.3459138870239 C90.24353416759516 494.35810827254625 104.60644875145817 494.3684056447886 118.96936988830566 494.37178897857666 C119.88856399964538 494.3720085446537 120.80775811098516 494.3722281107307 121.7548065893352 494.3724543303251 C122.67616251263769 494.37267260804765 123.59751843594017 494.3728908857704 124.54679423570633 494.37311577796936 C126.4137076146834 494.37355923808434 128.28062099292595 494.3740058013743 130.14753437042236 494.37445545196533 C131.5366053718701 494.37478759661315 131.5366053718701 494.37478759661315 132.95373841375113 494.3751264512539 C147.93850888079947 494.37906927617973 162.92323056279452 494.39650677198165 177.90798220783472 494.4198149740696 C193.30802869020476 494.4435747774801 208.70805075448106 494.45599301663947 224.10811585187912 494.4571568965912 C232.74826410837977 494.45807132335153 241.38834888235442 494.4637644112737 250.02847957611084 494.48197650909424 C257.3906699935437 494.4974404229015 264.7527773270225 494.5024612734612 272.1149809136987 494.49423840641975 C275.86582899479936 494.4903533644406 279.6165101011743 494.4911551273617 283.3673372268677 494.505295753479 C309.85285287533657 494.7350827229026 309.85285287533657 494.7350827229026 335.09846210479736 487.44672107696533 C335.8950221633911 487.09859363555915 336.69158222198485 486.75046619415275 337.51228046417236 486.39178943634033 C358.04864197575876 477.1417945369152 374.14104768907987 461.04667157026665 384.34846210479736 441.13422107696533 C384.83186054229736 440.19578357696537 385.31525897979736 439.2573460769654 385.81330585479736 438.29047107696533 C390.8493082830414 427.88171225870997 394.46437755278316 416.2083683040564 394.47988986968994 404.58083152770996 C394.4837310147286 403.49479969561094 394.48757215976707 402.408767863512 394.49152970314026 401.2898259758949 C394.4902299797535 399.5162618628144 394.4902299797535 399.5162618628144 394.4889039993286 397.7068681716919 C394.49187512159347 396.4423403257131 394.4948462438583 395.1778124797345 394.4979074001312 393.87496560811996 C394.5059547435585 390.3715873662461 394.50776571056304 386.8682296389154 394.5085048675537 383.364843249321 C394.51035944651767 379.58343482705857 394.51790895151885 375.802036950368 394.524640083313 372.0206346511841 C394.53820918249676 363.7537189762925 394.5442462860443 355.4868081605805 394.54865074157715 347.21988320350647 C394.55141632769573 342.05339820430345 394.55565433131096 336.88691506738746 394.56015491485596 331.7204313278198 C394.5723471547017 317.4037958030683 394.5826456273228 303.08716176759833 394.5860300064087 288.77052116394043 C394.5862495724857 287.85457822229705 394.58646913856273 286.9386352806539 394.58669535815716 285.9949364922941 C394.5869136358797 285.07684815783045 394.58713191360243 284.15875982336706 394.5873568058014 283.21285063028336 C394.5878002653526 281.3525750232278 394.58824682863576 279.49229941690965 394.58869647979736 277.63202381134033 C394.5889179095626 276.7092702829093 394.58913933932786 275.78651675447827 394.5893674790859 274.8358009979129 C394.59331169418033 259.8989174343011 394.61075441502 244.9620827691349 394.6340560019016 230.02521807700396 C394.65781011630145 214.6737352926408 394.67023375123335 199.3222769953153 394.6713979244232 183.9707755446434 C394.6723125577612 175.35806072488788 394.6780111000576 166.74540957607678 394.69621753692627 158.13271236419678 C394.71167360737286 150.79540402361977 394.71670678556666 143.45817902399847 394.7084794342518 136.1208574846387 C394.70459193465126 132.38227775596704 394.7054085223933 128.64386556627966 394.71953678131104 124.90530681610107 C394.82797503944346 94.47461785359684 390.21100907115715 68.54486538272783 369.34846210479736 45.13422107696533 C368.33525897979735 43.99726795196534 368.33525897979735 43.99726795196534 367.30158710479736 42.83734607696533 C355.55947802502567 30.40956639399525 339.8241498701087 21.600638903343565 323.34846210479736 17.134221076965332 C322.46869111061096 16.881694803237906 321.58892011642456 16.62916852951048 320.6824893951416 16.368989944458008 C307.49672191134505 13.15567036976995 294.02935151338295 13.712954650271513 280.54574143886566 13.75670611858368 C276.7727619232419 13.76563102168683 272.99981365266365 13.757081101669314 269.2268342971802 13.75084400177002 C261.85606226829884 13.741403169431123 254.4853888192166 13.747913486075959 247.11462416499853 13.760106943547726 C238.52022710924643 13.773790549775981 229.92585300064718 13.772083605529133 221.3314478173852 13.769973613321781 C205.9942442910999 13.76679086056373 190.65708736311626 13.778412170318006 175.31989765167236 13.798039436340332 C160.45497437848405 13.817057174024171 145.59010565843056 13.824121743828755 130.72517108917236 13.818547248840332 C114.5099414678989 13.812484308276737 98.29473576638378 13.812674693521217 82.07950812578201 13.824033081531525 C80.34953169114146 13.825240297946607 78.61955525564156 13.826446283530288 76.8895788192749 13.827651023864746 C76.03853657301516 13.828254562579104 75.18749432675543 13.828858101293463 74.31066292151809 13.829479929059744 C68.32644579476062 13.833351821185431 62.342237602043554 13.832968349378916 56.35801982879639 13.83106517791748 C49.06470707936069 13.828939369252282 41.77144198620988 13.83419695343639 34.47814264148474 13.848678730428219 C30.760414208381633 13.855902562051881 27.042755047284913 13.860016909990748 23.325020790100098 13.855435371398926 C19.289568937968284 13.850583330568725 15.254305487546048 13.861309921157897 11.21886920928955 13.87352466583252 C10.05203544795512 13.869745342135445 8.88520168662069 13.865966018438314 7.683009326457977 13.862072169780731 C0.9993773734705087 13.897817042152496 -5.159903621904618 14.536293104262427 -11.651537895202637 16.134221076965332 Z " fill="#030303" transform="translate(357.65153789520264,257.86577892303467)"/>
<path d="M0 0 C1.3733472448116117 1.16526432893113 2.7279161360329454 2.3530333732798567 4.0625 3.5625 C5.1453125000000455 4.490625000000023 5.1453125000000455 4.490625000000023 6.25 5.4375 C16.013295343681534 14.38718739837475 23.565209662491384 26.789787463011976 27.0625 39.5625 C27.4169921875 40.7651953125 27.771484375 41.967890624999995 28.13671875 43.20703125 C29.362961585871517 48.2068695177511 29.40560629752963 53.12322337901247 29.375 58.25 C29.367628173828052 59.70865478515623 29.367628173828052 59.70865478515623 29.360107421875 61.19677734375 C28.999619172225152 83.39915620679926 19.32698796918544 101.27398216130518 3.90625 116.72265625 C-5.963196534009285 126.0020815238239 -17.123327915958157 130.8353009082474 -29.9375 134.5625 C-30.54480957031251 134.7420825195312 -31.152119140625018 134.92166503906253 -31.77783203125 135.106689453125 C-45.175334788407554 137.934310711051 -62.340757342709594 136.96592848570094 -74.9375 131.5625 C-75.94039062499996 131.14999999999998 -76.94328125000004 130.73749999999995 -77.9765625 130.3125 C-95.72564947785554 122.24056380335253 -109.900415098606 107.89866617090524 -117.48046875 89.8984375 C-121.04320469247273 80.14009330566125 -123.27765678140031 71.55552986103265 -123.1875 61.1875 C-123.19523437500004 60.305781249999995 -123.20296874999997 59.42406249999999 -123.2109375 58.515625 C-123.15213612387845 38.46435574256475 -115.15629100800834 20.46275873634852 -101.4111328125 6.0244140625 C-73.9010519851281 -21.266898726483248 -30.537479640509332 -22.836723905076497 0 0 Z " fill="#FDFDFD" transform="translate(672.9375,406.4375)"/>
<path d="M0 0 C0.9965258789062545 0.4101635742187568 0.9965258789062545 0.4101635742187568 2.01318359375 0.82861328125 C21.860144834524988 9.136971611609965 35.389770449388436 24.472821576199237 44 44 C49.87509499694181 58.784579717578936 50.50445417840518 78.02788463473786 45 93 C44.63648437500001 94.0003125 44.27296875000002 95.00062500000001 43.8984375 96.03125 C36.78895918693814 114.19482039982256 23.732257242752553 130.28205180126508 6 139 C-5.903839337243369 143.89440318991444 -16.47474941474195 146.35142586593474 -29.3125 146.3125 C-30.36373046875002 146.32861328125 -31.414960937499984 146.3447265625 -32.498046875 146.361328125 C-43.369471940868095 146.36801000887579 -53.04111505910214 144.14689619145736 -62.5625 138.875 C-63.64519165039064 138.28622070312497 -63.64519165039064 138.28622070312497 -64.749755859375 137.685546875 C-83.23863819790506 127.33622940930786 -96.68957405948544 110.5598417565156 -102.53515625 90.129638671875 C-104.1632286264728 83.71910368951342 -104.29932150946416 77.52603163925426 -104.25 70.9375 C-104.25773437499998 69.90044921875 -104.26546875000003 68.8633984375 -104.2734375 67.794921875 C-104.25828265042992 61.82012243199915 -103.71880743363016 56.72108467078334 -102 51 C-101.75121093749999 50.04996093750003 -101.50242187499998 49.09992187500001 -101.24609375 48.12109375 C-95.48814492313329 29.011379527500253 -82.57499884140174 13.936230900626697 -65.48828125 3.87109375 C-45.40594839485772 -6.900952652702301 -21.10087195683917 -9.147903286807946 0 0 Z " fill="#FDFDFD" transform="translate(426,396)"/>
<path d="M0 0 C6.1548757992488845 2.3328964722959427 11.815769051666564 5.895050293797567 17.5234375 9.140625 C18.50554199218749 9.692021484375005 19.487646484374977 10.243417968750009 20.49951171875 10.8115234375 C22.486424201344562 11.929626507444937 24.4648534964021 13.062951632282534 26.43408203125 14.2119140625 C27.353022460937495 14.729794921875055 28.27196289062499 15.247675781249995 29.21875 15.78125 C30.043105468750014 16.25626953125004 30.867460937500027 16.731289062499968 31.716796875 17.220703125 C33.978506603634 18.257078190536618 33.978506603634 18.257078190536618 36.1328125 17.23876953125 C36.74898437500002 16.829975585937518 37.365156249999984 16.421181640625036 38 16 C43.29989403077411 12.804475657915646 47.480924202057565 12.540751660681963 53.5 12.625 C54.32886718750001 12.613398437499995 55.15773437500002 12.601796874999991 56.01171875 12.58984375 C62.555213846009565 12.621052788613724 66.54162463914827 14.361083092765512 72 18 C75.49726492025263 17.62207943400358 78.34407396470874 15.867073984668082 81.39453125 14.19921875 C82.43287109375001 13.63396484375005 83.47121093750002 13.068710937499986 84.541015625 12.486328125 C85.62060546875 11.892714843750014 86.7001953125 11.299101562500027 87.8125 10.6875 C88.88048828125 10.105488281250018 89.94847656249999 9.523476562500036 91.048828125 8.923828125 C95.40517170596308 6.544946627170361 99.7465356862599 4.162804072084782 104.0078125 1.6171875 C108.30457954860162 -0.705086074570545 110.1841275577749 -0.6879817774607773 115 0 C118.01355268231578 1.767689993306476 120.41282430134129 3.8256486026826906 122 7 C122.10558810047235 8.66320760609267 122.14875095879734 10.330560463256688 122.1611328125 11.9970703125 C122.17074035644532 13.038652954101508 122.18034790039064 14.08023559570313 122.19024658203125 15.15338134765625 C122.1966213989258 16.848629455566424 122.1966213989258 16.848629455566424 122.203125 18.578125 C122.20882507324222 19.73745544433598 122.21452514648433 20.896785888671843 122.22039794921875 22.09124755859375 C122.22985870043817 24.549266402688772 122.23638618081031 27.007297992604208 122.240234375 29.46533203125 C122.24992414961491 33.22060418324861 122.28093173952175 36.97532551529639 122.3125 40.73046875 C122.31903148138645 43.11718424584126 122.32428138219836 45.50390366206807 122.328125 47.890625 C122.34047180175776 49.01269348144535 122.35281860351563 50.13476196289059 122.36553955078125 51.29083251953125 C122.34660749211093 57.941067544661905 121.89211439707469 62.66294492645227 117.375 67.875 C113.49780634623573 69.71156541494099 110.13427948561139 69.77149558813039 106 69 C100.85991979623623 66.75563478430877 96.08066651079446 63.963091960024826 91.25 61.125 C89.29579949049878 59.99997125521179 87.33858790975034 58.88039520730797 85.38006591796875 57.762908935546875 C83.61045531095294 56.749613229499914 81.8484494613856 55.72307042785167 80.0869140625 54.69580078125 C77.4269897229517 53.23456743242832 74.84375841427436 52.045011549809146 72 51 C70.85531249999997 51.92812500000002 70.85531249999997 51.92812500000002 69.6875 52.875 C64.18305319024444 57.22735329143461 61.036779737466645 57.365248879687556 54.25 57.375 C53.368281249999995 57.39949218749996 52.48656249999999 57.42398437500003 51.578125 57.44921875 C45.47365599766658 57.47647084376047 42.029511980565076 56.4690736481333 37 53 C36.00999999999999 52.34000000000003 35.01999999999998 51.67999999999995 34 51 C30.42473684533428 52.91938813710408 26.85013903030176 54.84000925884425 23.276123046875 56.76171875 C22.06308411944474 57.41374126735991 20.849871634037697 58.06544100978863 19.636474609375 58.716796875 C17.880878305786553 59.65928249866374 16.125981125577596 60.603070024899466 14.37109375 61.546875 C13.257666015624977 62.14508056640625 12.144238281250011 62.7432861328125 10.9970703125 63.359619140625 C8.61206603953184 64.66499904532304 6.276787222853841 66.01484020834562 3.94921875 67.41796875 C-0.16384942965987648 69.62431658147318 -3.4547083510078096 70.00439028947767 -8 69 C-11.281753180789508 66.4703152564748 -12.692437771540312 64.92268668537906 -14 61 C-14.107520539156212 59.26820028643044 -14.158725602438437 57.53264542989257 -14.177001953125 55.797607421875 C-14.196254806518539 54.20531562805172 -14.196254806518539 54.20531562805172 -14.215896606445313 52.58085632324219 C-14.22328353881835 51.43397842407228 -14.230670471191388 50.28710052490237 -14.23828125 49.10546875 C-14.246352996826147 47.92535720825197 -14.25442474365235 46.74524566650393 -14.262741088867188 45.52937316894531 C-14.276579142347146 43.03025785960051 -14.28730253901523 40.53112367175686 -14.295166015625 38.031982421875 C-14.3123849607382 34.21301441205492 -14.356276121368865 30.394910611113346 -14.400390625 26.576171875 C-14.410517051037118 24.14844386663708 -14.41903330885691 21.720708499722832 -14.42578125 19.29296875 C-14.443289337158205 18.152163543701135 -14.46079742431641 17.011358337402385 -14.478836059570313 15.835983276367188 C-14.46182874023333 9.609987136784753 -14.284648943812044 5.684449810936826 -10 1 C-6.670872774920838 -0.6645636125396095 -3.5868735183237277 -0.5727427069581381 0 0 Z " fill="#E43432" transform="translate(458,637)"/>
<path d="M0 0 C2.01953125 2.29296875 2.01953125 2.29296875 3.8125 5.1875 C8.4996205695183 12.10145179794847 14.061268681099705 16.341782273309377 22 19 C32.31842200057565 20.109662701179218 40.983505779673806 18.30352235467035 49.14453125 11.8203125 C51.85195614739962 9.164186179603803 53.80739954883211 6.182259958901454 55.7734375 2.953125 C57 1 57 1 59 -1 C62.25505043815349 -1.5139553323400605 63.60199087032811 -1.26184811162625 66.375 0.5625 C68 3 68 3 68.125 6.25 C66.6651115240802 11.116294919732809 64.30679430464454 14.206912415260717 61 18 C60.471484375000045 18.622617187500055 59.94296874999998 19.245234374999995 59.3984375 19.88671875 C52.34730996238113 27.58949077569264 42.85266817459217 31.56930480608628 32.51953125 32.21875 C19.69221066417674 32.52753204018029 10.133328164937836 30.1247847283704 0 22 C-4.630117201799806 17.106380193219707 -9.532267573246145 11.81981481848959 -10.375 4.9375 C-10 2 -10 2 -8.375 0.0625 C-5.11577534918132 -1.3955741858925421 -3.407693165906778 -0.9822427835989629 0 0 Z " fill="#060606" transform="translate(483,577)"/>
</svg>
